<svg width="1280" height="720" viewBox="0 0 1280 720" fill="none" xmlns="http://www.w3.org/2000/svg">
<g filter="url(#filter0_d_899_505)">
<rect x="35" y="83" width="1210" height="621" rx="10" fill="white"/>
<path d="M62.4346 99.3965L57.9082 112H55.5703L51.123 99.3965H53.4082L56.5195 108.959C56.6191 109.264 56.6953 109.618 56.748 110.022H56.7832C56.8242 109.688 56.9092 109.328 57.0381 108.941L60.2197 99.3965H62.4346ZM64.9043 101.11C64.5703 101.11 64.2832 101.002 64.043 100.785C63.8086 100.568 63.6914 100.293 63.6914 99.959C63.6914 99.625 63.8086 99.3467 64.043 99.124C64.2832 98.9014 64.5703 98.79 64.9043 98.79C65.25 98.79 65.543 98.9014 65.7832 99.124C66.0234 99.3467 66.1436 99.625 66.1436 99.959C66.1436 100.275 66.0234 100.548 65.7832 100.776C65.543 100.999 65.25 101.11 64.9043 101.11ZM65.915 112H63.876V103H65.915V112ZM68.0244 111.719V109.829C68.7861 110.409 69.627 110.699 70.5469 110.699C71.7773 110.699 72.3926 110.336 72.3926 109.609C72.3926 109.404 72.3398 109.231 72.2344 109.091C72.1289 108.944 71.9854 108.815 71.8037 108.704C71.6279 108.593 71.417 108.493 71.1709 108.405C70.9307 108.317 70.6611 108.218 70.3623 108.106C69.9932 107.96 69.6592 107.805 69.3604 107.641C69.0674 107.477 68.8213 107.292 68.6221 107.087C68.4287 106.876 68.2822 106.639 68.1826 106.375C68.083 106.111 68.0332 105.804 68.0332 105.452C68.0332 105.019 68.1357 104.638 68.3408 104.31C68.5459 103.976 68.8213 103.697 69.167 103.475C69.5127 103.246 69.9053 103.076 70.3447 102.965C70.7842 102.848 71.2383 102.789 71.707 102.789C72.5391 102.789 73.2832 102.915 73.9395 103.167V104.951C73.3066 104.518 72.5801 104.301 71.7598 104.301C71.502 104.301 71.2676 104.327 71.0566 104.38C70.8516 104.433 70.6758 104.506 70.5293 104.6C70.3828 104.693 70.2686 104.808 70.1865 104.942C70.1045 105.071 70.0635 105.215 70.0635 105.373C70.0635 105.566 70.1045 105.73 70.1865 105.865C70.2686 106 70.3887 106.12 70.5469 106.226C70.7109 106.325 70.9043 106.419 71.127 106.507C71.3555 106.589 71.6162 106.68 71.9092 106.779C72.2959 106.938 72.6416 107.099 72.9463 107.263C73.2568 107.427 73.5205 107.614 73.7373 107.825C73.9541 108.03 74.1211 108.271 74.2383 108.546C74.3555 108.815 74.4141 109.138 74.4141 109.513C74.4141 109.97 74.3086 110.368 74.0977 110.708C73.8867 111.048 73.6055 111.329 73.2539 111.552C72.9023 111.774 72.4951 111.938 72.0322 112.044C71.5752 112.155 71.0918 112.211 70.582 112.211C69.5977 112.211 68.7451 112.047 68.0244 111.719ZM83.2646 112H81.2871V110.594H81.252C80.6309 111.672 79.7197 112.211 78.5186 112.211C77.6338 112.211 76.9395 111.971 76.4355 111.49C75.9375 111.01 75.6885 110.374 75.6885 109.583C75.6885 107.884 76.667 106.894 78.624 106.612L81.2959 106.234C81.2959 104.951 80.6865 104.31 79.4678 104.31C78.3955 104.31 77.4287 104.679 76.5674 105.417V103.633C77.5166 103.07 78.6123 102.789 79.8545 102.789C82.1279 102.789 83.2646 103.908 83.2646 106.146V112ZM81.2959 107.579L79.4062 107.843C78.8203 107.919 78.3779 108.062 78.0791 108.273C77.7861 108.479 77.6396 108.842 77.6396 109.363C77.6396 109.744 77.7744 110.058 78.0439 110.304C78.3193 110.544 78.6855 110.664 79.1426 110.664C79.7637 110.664 80.2764 110.447 80.6807 110.014C81.0908 109.574 81.2959 109.023 81.2959 108.361V107.579ZM82.6934 99.0361C82.6934 99.7158 82.541 100.272 82.2363 100.706C81.9375 101.134 81.5303 101.348 81.0146 101.348C80.5928 101.348 80.1094 101.207 79.5645 100.926C79.1074 100.662 78.7529 100.53 78.501 100.53C78.0088 100.53 77.7627 100.855 77.7627 101.506H76.752C76.752 100.809 76.9014 100.252 77.2002 99.8359C77.499 99.4141 77.918 99.2031 78.457 99.2031C78.8555 99.2031 79.3154 99.3525 79.8369 99.6514C80.2588 99.9092 80.625 100.038 80.9355 100.038C81.4102 100.038 81.6475 99.7041 81.6475 99.0361H82.6934ZM89.751 112.211C88.3623 112.211 87.252 111.792 86.4199 110.954C85.5938 110.11 85.1807 108.994 85.1807 107.605C85.1807 106.094 85.6113 104.913 86.4727 104.063C87.3398 103.214 88.5059 102.789 89.9707 102.789C91.377 102.789 92.4727 103.202 93.2578 104.028C94.043 104.854 94.4355 106 94.4355 107.465C94.4355 108.9 94.0107 110.052 93.1611 110.919C92.3174 111.78 91.1807 112.211 89.751 112.211ZM89.8477 104.415C89.0508 104.415 88.4209 104.693 87.958 105.25C87.4951 105.807 87.2637 106.574 87.2637 107.553C87.2637 108.496 87.498 109.24 87.9668 109.785C88.4355 110.324 89.0625 110.594 89.8477 110.594C90.6504 110.594 91.2656 110.327 91.6934 109.794C92.127 109.261 92.3438 108.502 92.3438 107.518C92.3438 106.527 92.127 105.763 91.6934 105.224C91.2656 104.685 90.6504 104.415 89.8477 104.415ZM101.704 112V99.3965H105.343C109.989 99.3965 112.312 101.444 112.312 105.54C112.312 107.485 111.668 109.05 110.379 110.233C109.09 111.411 107.361 112 105.193 112H101.704ZM103.787 101.172V110.233H105.457C106.928 110.233 108.07 109.829 108.885 109.021C109.705 108.212 110.115 107.069 110.115 105.593C110.115 102.646 108.589 101.172 105.536 101.172H103.787ZM122.016 108.054H115.881C115.904 108.886 116.159 109.527 116.646 109.979C117.138 110.43 117.812 110.655 118.667 110.655C119.628 110.655 120.51 110.368 121.312 109.794V111.438C120.492 111.953 119.408 112.211 118.061 112.211C116.736 112.211 115.696 111.804 114.94 110.989C114.19 110.169 113.815 109.018 113.815 107.535C113.815 106.135 114.229 104.995 115.055 104.116C115.887 103.231 116.918 102.789 118.148 102.789C119.379 102.789 120.331 103.185 121.005 103.976C121.679 104.767 122.016 105.865 122.016 107.271V108.054ZM120.047 106.612C120.041 105.88 119.868 105.312 119.528 104.907C119.188 104.497 118.72 104.292 118.122 104.292C117.536 104.292 117.038 104.506 116.628 104.934C116.224 105.361 115.975 105.921 115.881 106.612H120.047ZM128.704 111.903C128.306 112.103 127.781 112.202 127.131 112.202C125.385 112.202 124.512 111.364 124.512 109.688V104.6H123.009V103H124.512V100.917L126.551 100.337V103H128.704V104.6H126.551V109.1C126.551 109.633 126.647 110.014 126.841 110.242C127.034 110.471 127.356 110.585 127.808 110.585C128.153 110.585 128.452 110.485 128.704 110.286V111.903ZM137.37 112H135.393V110.594H135.357C134.736 111.672 133.825 112.211 132.624 112.211C131.739 112.211 131.045 111.971 130.541 111.49C130.043 111.01 129.794 110.374 129.794 109.583C129.794 107.884 130.772 106.894 132.729 106.612L135.401 106.234C135.401 104.951 134.792 104.31 133.573 104.31C132.501 104.31 131.534 104.679 130.673 105.417V103.633C131.622 103.07 132.718 102.789 133.96 102.789C136.233 102.789 137.37 103.908 137.37 106.146V112ZM135.401 107.579L133.512 107.843C132.926 107.919 132.483 108.062 132.185 108.273C131.892 108.479 131.745 108.842 131.745 109.363C131.745 109.744 131.88 110.058 132.149 110.304C132.425 110.544 132.791 110.664 133.248 110.664C133.869 110.664 134.382 110.447 134.786 110.014C135.196 109.574 135.401 109.023 135.401 108.361V107.579ZM141.914 112H139.866V98.6758H141.914V112ZM152.575 112H150.536V107.078C150.536 105.297 149.941 104.406 148.752 104.406C148.154 104.406 147.65 104.664 147.24 105.18C146.83 105.695 146.625 106.354 146.625 107.157V112H144.577V98.6758H146.625V104.494H146.66C147.34 103.357 148.312 102.789 149.578 102.789C151.576 102.789 152.575 104.011 152.575 106.454V112ZM161.962 112H159.984V110.594H159.949C159.328 111.672 158.417 112.211 157.216 112.211C156.331 112.211 155.637 111.971 155.133 111.49C154.635 111.01 154.386 110.374 154.386 109.583C154.386 107.884 155.364 106.894 157.321 106.612L159.993 106.234C159.993 104.951 159.384 104.31 158.165 104.31C157.093 104.31 156.126 104.679 155.265 105.417V103.633C156.214 103.07 157.31 102.789 158.552 102.789C160.825 102.789 161.962 103.908 161.962 106.146V112ZM159.993 107.579L158.104 107.843C157.518 107.919 157.075 108.062 156.776 108.273C156.483 108.479 156.337 108.842 156.337 109.363C156.337 109.744 156.472 110.058 156.741 110.304C157.017 110.544 157.383 110.664 157.84 110.664C158.461 110.664 158.974 110.447 159.378 110.014C159.788 109.574 159.993 109.023 159.993 108.361V107.579ZM172.641 112H170.602V110.471H170.566C169.91 111.631 168.899 112.211 167.534 112.211C166.427 112.211 165.539 111.81 164.871 111.007C164.209 110.198 163.878 109.1 163.878 107.711C163.878 106.223 164.244 105.03 164.977 104.134C165.715 103.237 166.696 102.789 167.921 102.789C169.134 102.789 170.016 103.275 170.566 104.248H170.602V98.6758H172.641V112ZM170.628 107.887V106.709C170.628 106.07 170.42 105.528 170.004 105.083C169.588 104.638 169.058 104.415 168.413 104.415C167.651 104.415 167.051 104.699 166.611 105.268C166.178 105.836 165.961 106.624 165.961 107.632C165.961 108.546 166.169 109.27 166.585 109.803C167.007 110.33 167.572 110.594 168.281 110.594C168.979 110.594 169.544 110.339 169.978 109.829C170.411 109.313 170.628 108.666 170.628 107.887ZM182.212 112H180.234V110.594H180.199C179.578 111.672 178.667 112.211 177.466 112.211C176.581 112.211 175.887 111.971 175.383 111.49C174.885 111.01 174.636 110.374 174.636 109.583C174.636 107.884 175.614 106.894 177.571 106.612L180.243 106.234C180.243 104.951 179.634 104.31 178.415 104.31C177.343 104.31 176.376 104.679 175.515 105.417V103.633C176.464 103.07 177.56 102.789 178.802 102.789C181.075 102.789 182.212 103.908 182.212 106.146V112ZM180.243 107.579L178.354 107.843C177.768 107.919 177.325 108.062 177.026 108.273C176.733 108.479 176.587 108.842 176.587 109.363C176.587 109.744 176.722 110.058 176.991 110.304C177.267 110.544 177.633 110.664 178.09 110.664C178.711 110.664 179.224 110.447 179.628 110.014C180.038 109.574 180.243 109.023 180.243 108.361V107.579Z" fill="#181818"/>
</g>
<path d="M85.957 44.4629V41.3379C86.5234 41.8132 87.1387 42.1712 87.8027 42.4121C88.4668 42.6465 89.1374 42.7637 89.8145 42.7637C90.2116 42.7637 90.5566 42.7279 90.8496 42.6562C91.1491 42.5846 91.3965 42.487 91.5918 42.3633C91.7936 42.2331 91.9434 42.0833 92.041 41.9141C92.1387 41.7383 92.1875 41.5495 92.1875 41.3477C92.1875 41.0742 92.1094 40.8301 91.9531 40.6152C91.7969 40.4004 91.582 40.2018 91.3086 40.0195C91.0417 39.8372 90.7227 39.6615 90.3516 39.4922C89.9805 39.3229 89.5801 39.1504 89.1504 38.9746C88.0566 38.5189 87.2396 37.9622 86.6992 37.3047C86.1654 36.6471 85.8984 35.8529 85.8984 34.9219C85.8984 34.1927 86.0449 33.5677 86.3379 33.0469C86.6309 32.5195 87.028 32.0866 87.5293 31.748C88.0371 31.4095 88.623 31.1621 89.2871 31.0059C89.9512 30.8431 90.6543 30.7617 91.3965 30.7617C92.1257 30.7617 92.7702 30.8073 93.3301 30.8984C93.8965 30.9831 94.4173 31.1165 94.8926 31.2988V34.2188C94.6582 34.056 94.401 33.9128 94.1211 33.7891C93.8477 33.6654 93.5645 33.5645 93.2715 33.4863C92.9785 33.4017 92.6855 33.3398 92.3926 33.3008C92.1061 33.2617 91.8327 33.2422 91.5723 33.2422C91.2142 33.2422 90.8887 33.278 90.5957 33.3496C90.3027 33.4147 90.0553 33.5091 89.8535 33.6328C89.6517 33.7565 89.4954 33.9062 89.3848 34.082C89.2741 34.2513 89.2188 34.4434 89.2188 34.6582C89.2188 34.8926 89.2806 35.1042 89.4043 35.293C89.528 35.4753 89.7038 35.651 89.9316 35.8203C90.1595 35.9831 90.4362 36.1458 90.7617 36.3086C91.0872 36.4648 91.4551 36.6276 91.8652 36.7969C92.4251 37.0312 92.9264 37.2819 93.3691 37.5488C93.8184 37.8092 94.2025 38.1055 94.5215 38.4375C94.8405 38.7695 95.0846 39.1504 95.2539 39.5801C95.4232 40.0033 95.5078 40.498 95.5078 41.0645C95.5078 41.8457 95.3581 42.5033 95.0586 43.0371C94.7656 43.5645 94.3652 43.9941 93.8574 44.3262C93.3496 44.6517 92.7572 44.8861 92.0801 45.0293C91.4095 45.1725 90.6999 45.2441 89.9512 45.2441C89.1829 45.2441 88.4505 45.179 87.7539 45.0488C87.0638 44.9186 86.4648 44.7233 85.957 44.4629ZM100.635 43.8379H100.596V49.5996H97.5098V35H100.596V36.5039H100.635C101.396 35.3385 102.467 34.7559 103.848 34.7559C105.143 34.7559 106.143 35.2018 106.846 36.0938C107.555 36.9792 107.91 38.1868 107.91 39.7168C107.91 41.3835 107.497 42.7214 106.67 43.7305C105.85 44.7396 104.756 45.2441 103.389 45.2441C102.184 45.2441 101.266 44.7754 100.635 43.8379ZM100.547 39.7363V40.5371C100.547 41.2272 100.729 41.7904 101.094 42.2266C101.458 42.6628 101.937 42.8809 102.529 42.8809C103.232 42.8809 103.776 42.6107 104.16 42.0703C104.551 41.5234 104.746 40.752 104.746 39.7559C104.746 37.998 104.062 37.1191 102.695 37.1191C102.064 37.1191 101.546 37.36 101.143 37.8418C100.745 38.3171 100.547 38.9486 100.547 39.7363ZM114.678 45.2441C113.011 45.2441 111.699 44.7786 110.742 43.8477C109.792 42.9102 109.316 41.6406 109.316 40.0391C109.316 38.3854 109.811 37.0931 110.801 36.1621C111.79 35.2246 113.128 34.7559 114.814 34.7559C116.475 34.7559 117.777 35.2246 118.721 36.1621C119.665 37.0931 120.137 38.3268 120.137 39.8633C120.137 41.5234 119.648 42.8353 118.672 43.7988C117.702 44.7624 116.37 45.2441 114.678 45.2441ZM114.756 37.1191C114.027 37.1191 113.46 37.3698 113.057 37.8711C112.653 38.3724 112.451 39.082 112.451 40C112.451 41.9206 113.226 42.8809 114.775 42.8809C116.253 42.8809 116.992 41.8945 116.992 39.9219C116.992 38.0534 116.247 37.1191 114.756 37.1191ZM128.184 44.8828C127.728 45.1237 127.041 45.2441 126.123 45.2441C123.949 45.2441 122.861 44.1146 122.861 41.8555V37.2754H121.24V35H122.861V32.8418L125.938 31.9629V35H128.184V37.2754H125.938V41.3184C125.938 42.36 126.351 42.8809 127.178 42.8809C127.503 42.8809 127.839 42.7865 128.184 42.5977V44.8828ZM131.494 33.418C130.973 33.418 130.547 33.265 130.215 32.959C129.883 32.6465 129.717 32.2656 129.717 31.8164C129.717 31.3542 129.883 30.9766 130.215 30.6836C130.547 30.3906 130.973 30.2441 131.494 30.2441C132.021 30.2441 132.448 30.3906 132.773 30.6836C133.105 30.9766 133.271 31.3542 133.271 31.8164C133.271 32.2852 133.105 32.6693 132.773 32.9688C132.448 33.2682 132.021 33.418 131.494 33.418ZM133.018 45H129.932V35H133.018V45ZM142.139 32.5586C141.742 32.4023 141.361 32.3242 140.996 32.3242C140.007 32.3242 139.512 32.8613 139.512 33.9355V35H141.797V37.2754H139.512V45H136.436V37.2754H134.756V35H136.436V33.7598C136.436 32.6204 136.807 31.7025 137.549 31.0059C138.291 30.3092 139.3 29.9609 140.576 29.9609C141.201 29.9609 141.722 30.026 142.139 30.1562V32.5586ZM153.223 35L149.16 45.8008C148.184 48.3984 146.712 49.6973 144.746 49.6973C143.997 49.6973 143.382 49.6126 142.9 49.4434V46.9824C143.311 47.2233 143.757 47.3438 144.238 47.3438C145.033 47.3438 145.586 46.9694 145.898 46.2207L146.426 44.9805L142.363 35H145.781L147.646 41.084C147.764 41.4616 147.855 41.9076 147.92 42.4219H147.959C148.018 42.0443 148.125 41.6048 148.281 41.1035L150.166 35H153.223Z" fill="#1DB954"/>
<g clip-path="url(#clip0_899_505)">
<path d="M53.5 19.6562C42.1837 19.6562 33 28.7699 33 40C33 51.2301 42.1837 60.3438 53.5 60.3438C64.8163 60.3438 74 51.2301 74 40C74 28.7699 64.8163 19.6562 53.5 19.6562Z" fill="#1ED760"/>
<path d="M66.6103 37.9573C66.1804 37.9573 65.9159 37.8507 65.5439 37.6374C59.6584 34.1511 49.1357 33.3144 42.3244 35.2011C42.0268 35.2831 41.6548 35.4144 41.258 35.4144C40.1669 35.4144 39.332 34.5694 39.332 33.4784C39.332 32.3628 40.0264 31.7312 40.7703 31.5179C43.68 30.673 46.9369 30.271 50.483 30.271C56.5173 30.271 62.8409 31.5179 67.4617 34.1921C68.1064 34.5612 68.528 35.0698 68.528 36.046C68.528 37.1616 67.6187 37.9573 66.6103 37.9573ZM64.0478 44.2081C63.6179 44.2081 63.3286 44.0194 63.031 43.8636C57.8647 40.8284 50.1607 39.6062 43.308 41.4519C42.9113 41.5585 42.6963 41.6651 42.3244 41.6651C41.4399 41.6651 40.7207 40.9515 40.7207 40.0737C40.7207 39.196 41.1506 38.6136 42.002 38.3757C44.3 37.7358 46.6476 37.2601 50.0863 37.2601C55.451 37.2601 60.6338 38.5808 64.7173 40.9925C65.3869 41.3862 65.6514 41.8948 65.6514 42.6085C65.6431 43.4944 64.9488 44.2081 64.0478 44.2081ZM61.8242 49.5894C61.477 49.5894 61.2621 49.4827 60.9397 49.294C55.7816 46.2097 49.7804 46.0784 43.8536 47.2843C43.5312 47.3663 43.1097 47.4976 42.8699 47.4976C42.0681 47.4976 41.5639 46.8659 41.5639 46.2015C41.5639 45.3565 42.0681 44.9546 42.6881 44.8233C49.458 43.3386 56.3768 43.4698 62.2788 46.9726C62.783 47.2925 63.0806 47.5796 63.0806 48.3261C63.0806 49.0726 62.4937 49.5894 61.8242 49.5894Z" fill="black"/>
</g>
<defs>
<filter id="filter0_d_899_505" x="31" y="81" width="1218" height="629" filterUnits="userSpaceOnUse" color-interpolation-filters="sRGB">
<feFlood flood-opacity="0" result="BackgroundImageFix"/>
<feColorMatrix in="SourceAlpha" type="matrix" values="0 0 0 0 0 0 0 0 0 0 0 0 0 0 0 0 0 0 127 0" result="hardAlpha"/>
<feOffset dy="2"/>
<feGaussianBlur stdDeviation="2"/>
<feComposite in2="hardAlpha" operator="out"/>
<feColorMatrix type="matrix" values="0 0 0 0 0 0 0 0 0 0 0 0 0 0 0 0 0 0 0.15 0"/>
<feBlend mode="normal" in2="BackgroundImageFix" result="effect1_dropShadow_899_505"/>
<feBlend mode="normal" in="SourceGraphic" in2="effect1_dropShadow_899_505" result="shape"/>
</filter>
<clipPath id="clip0_899_505">
<rect width="41" height="42" fill="white" transform="translate(33 19)"/>
</clipPath>
</defs>
</svg>
