<svg width="1280" height="720" viewBox="0 0 1280 720" fill="none" xmlns="http://www.w3.org/2000/svg">
<g clip-path="url(#clip0_899_431)">
<rect width="1280" height="720" fill="url(#paint0_linear_899_431)"/>
<g filter="url(#filter0_d_899_431)">
<rect x="35" y="81" width="1210" height="574" rx="10" fill="white" fill-opacity="0.8" shape-rendering="crispEdges"/>
<path d="M62.4346 97.3965L57.9082 110H55.5703L51.123 97.3965H53.4082L56.5195 106.959C56.6191 107.264 56.6953 107.618 56.748 108.022H56.7832C56.8242 107.688 56.9092 107.328 57.0381 106.941L60.2197 97.3965H62.4346ZM64.9043 99.1104C64.5703 99.1104 64.2832 99.002 64.043 98.7852C63.8086 98.5684 63.6914 98.293 63.6914 97.959C63.6914 97.625 63.8086 97.3467 64.043 97.124C64.2832 96.9014 64.5703 96.79 64.9043 96.79C65.25 96.79 65.543 96.9014 65.7832 97.124C66.0234 97.3467 66.1436 97.625 66.1436 97.959C66.1436 98.2754 66.0234 98.5479 65.7832 98.7764C65.543 98.999 65.25 99.1104 64.9043 99.1104ZM65.915 110H63.876V101H65.915V110ZM68.0244 109.719V107.829C68.7861 108.409 69.627 108.699 70.5469 108.699C71.7773 108.699 72.3926 108.336 72.3926 107.609C72.3926 107.404 72.3398 107.231 72.2344 107.091C72.1289 106.944 71.9854 106.815 71.8037 106.704C71.6279 106.593 71.417 106.493 71.1709 106.405C70.9307 106.317 70.6611 106.218 70.3623 106.106C69.9932 105.96 69.6592 105.805 69.3604 105.641C69.0674 105.477 68.8213 105.292 68.6221 105.087C68.4287 104.876 68.2822 104.639 68.1826 104.375C68.083 104.111 68.0332 103.804 68.0332 103.452C68.0332 103.019 68.1357 102.638 68.3408 102.31C68.5459 101.976 68.8213 101.697 69.167 101.475C69.5127 101.246 69.9053 101.076 70.3447 100.965C70.7842 100.848 71.2383 100.789 71.707 100.789C72.5391 100.789 73.2832 100.915 73.9395 101.167V102.951C73.3066 102.518 72.5801 102.301 71.7598 102.301C71.502 102.301 71.2676 102.327 71.0566 102.38C70.8516 102.433 70.6758 102.506 70.5293 102.6C70.3828 102.693 70.2686 102.808 70.1865 102.942C70.1045 103.071 70.0635 103.215 70.0635 103.373C70.0635 103.566 70.1045 103.73 70.1865 103.865C70.2686 104 70.3887 104.12 70.5469 104.226C70.7109 104.325 70.9043 104.419 71.127 104.507C71.3555 104.589 71.6162 104.68 71.9092 104.779C72.2959 104.938 72.6416 105.099 72.9463 105.263C73.2568 105.427 73.5205 105.614 73.7373 105.825C73.9541 106.03 74.1211 106.271 74.2383 106.546C74.3555 106.815 74.4141 107.138 74.4141 107.513C74.4141 107.97 74.3086 108.368 74.0977 108.708C73.8867 109.048 73.6055 109.329 73.2539 109.552C72.9023 109.774 72.4951 109.938 72.0322 110.044C71.5752 110.155 71.0918 110.211 70.582 110.211C69.5977 110.211 68.7451 110.047 68.0244 109.719ZM83.2646 110H81.2871V108.594H81.252C80.6309 109.672 79.7197 110.211 78.5186 110.211C77.6338 110.211 76.9395 109.971 76.4355 109.49C75.9375 109.01 75.6885 108.374 75.6885 107.583C75.6885 105.884 76.667 104.894 78.624 104.612L81.2959 104.234C81.2959 102.951 80.6865 102.31 79.4678 102.31C78.3955 102.31 77.4287 102.679 76.5674 103.417V101.633C77.5166 101.07 78.6123 100.789 79.8545 100.789C82.1279 100.789 83.2646 101.908 83.2646 104.146V110ZM81.2959 105.579L79.4062 105.843C78.8203 105.919 78.3779 106.062 78.0791 106.273C77.7861 106.479 77.6396 106.842 77.6396 107.363C77.6396 107.744 77.7744 108.058 78.0439 108.304C78.3193 108.544 78.6855 108.664 79.1426 108.664C79.7637 108.664 80.2764 108.447 80.6807 108.014C81.0908 107.574 81.2959 107.023 81.2959 106.361V105.579ZM82.6934 97.0361C82.6934 97.7158 82.541 98.2725 82.2363 98.7061C81.9375 99.1338 81.5303 99.3477 81.0146 99.3477C80.5928 99.3477 80.1094 99.207 79.5645 98.9258C79.1074 98.6621 78.7529 98.5303 78.501 98.5303C78.0088 98.5303 77.7627 98.8555 77.7627 99.5059H76.752C76.752 98.8086 76.9014 98.252 77.2002 97.8359C77.499 97.4141 77.918 97.2031 78.457 97.2031C78.8555 97.2031 79.3154 97.3525 79.8369 97.6514C80.2588 97.9092 80.625 98.0381 80.9355 98.0381C81.4102 98.0381 81.6475 97.7041 81.6475 97.0361H82.6934ZM89.751 110.211C88.3623 110.211 87.252 109.792 86.4199 108.954C85.5938 108.11 85.1807 106.994 85.1807 105.605C85.1807 104.094 85.6113 102.913 86.4727 102.063C87.3398 101.214 88.5059 100.789 89.9707 100.789C91.377 100.789 92.4727 101.202 93.2578 102.028C94.043 102.854 94.4355 104 94.4355 105.465C94.4355 106.9 94.0107 108.052 93.1611 108.919C92.3174 109.78 91.1807 110.211 89.751 110.211ZM89.8477 102.415C89.0508 102.415 88.4209 102.693 87.958 103.25C87.4951 103.807 87.2637 104.574 87.2637 105.553C87.2637 106.496 87.498 107.24 87.9668 107.785C88.4355 108.324 89.0625 108.594 89.8477 108.594C90.6504 108.594 91.2656 108.327 91.6934 107.794C92.127 107.261 92.3438 106.502 92.3438 105.518C92.3438 104.527 92.127 103.763 91.6934 103.224C91.2656 102.685 90.6504 102.415 89.8477 102.415ZM101.704 110V97.3965H105.343C109.989 97.3965 112.312 99.4443 112.312 103.54C112.312 105.485 111.668 107.05 110.379 108.233C109.09 109.411 107.361 110 105.193 110H101.704ZM103.787 99.1719V108.233H105.457C106.928 108.233 108.07 107.829 108.885 107.021C109.705 106.212 110.115 105.069 110.115 103.593C110.115 100.646 108.589 99.1719 105.536 99.1719H103.787ZM122.016 106.054H115.881C115.904 106.886 116.159 107.527 116.646 107.979C117.138 108.43 117.812 108.655 118.667 108.655C119.628 108.655 120.51 108.368 121.312 107.794V109.438C120.492 109.953 119.408 110.211 118.061 110.211C116.736 110.211 115.696 109.804 114.94 108.989C114.19 108.169 113.815 107.018 113.815 105.535C113.815 104.135 114.229 102.995 115.055 102.116C115.887 101.231 116.918 100.789 118.148 100.789C119.379 100.789 120.331 101.185 121.005 101.976C121.679 102.767 122.016 103.865 122.016 105.271V106.054ZM120.047 104.612C120.041 103.88 119.868 103.312 119.528 102.907C119.188 102.497 118.72 102.292 118.122 102.292C117.536 102.292 117.038 102.506 116.628 102.934C116.224 103.361 115.975 103.921 115.881 104.612H120.047ZM128.704 109.903C128.306 110.103 127.781 110.202 127.131 110.202C125.385 110.202 124.512 109.364 124.512 107.688V102.6H123.009V101H124.512V98.917L126.551 98.3369V101H128.704V102.6H126.551V107.1C126.551 107.633 126.647 108.014 126.841 108.242C127.034 108.471 127.356 108.585 127.808 108.585C128.153 108.585 128.452 108.485 128.704 108.286V109.903ZM137.37 110H135.393V108.594H135.357C134.736 109.672 133.825 110.211 132.624 110.211C131.739 110.211 131.045 109.971 130.541 109.49C130.043 109.01 129.794 108.374 129.794 107.583C129.794 105.884 130.772 104.894 132.729 104.612L135.401 104.234C135.401 102.951 134.792 102.31 133.573 102.31C132.501 102.31 131.534 102.679 130.673 103.417V101.633C131.622 101.07 132.718 100.789 133.96 100.789C136.233 100.789 137.37 101.908 137.37 104.146V110ZM135.401 105.579L133.512 105.843C132.926 105.919 132.483 106.062 132.185 106.273C131.892 106.479 131.745 106.842 131.745 107.363C131.745 107.744 131.88 108.058 132.149 108.304C132.425 108.544 132.791 108.664 133.248 108.664C133.869 108.664 134.382 108.447 134.786 108.014C135.196 107.574 135.401 107.023 135.401 106.361V105.579ZM141.914 110H139.866V96.6758H141.914V110ZM152.575 110H150.536V105.078C150.536 103.297 149.941 102.406 148.752 102.406C148.154 102.406 147.65 102.664 147.24 103.18C146.83 103.695 146.625 104.354 146.625 105.157V110H144.577V96.6758H146.625V102.494H146.66C147.34 101.357 148.312 100.789 149.578 100.789C151.576 100.789 152.575 102.011 152.575 104.454V110ZM161.962 110H159.984V108.594H159.949C159.328 109.672 158.417 110.211 157.216 110.211C156.331 110.211 155.637 109.971 155.133 109.49C154.635 109.01 154.386 108.374 154.386 107.583C154.386 105.884 155.364 104.894 157.321 104.612L159.993 104.234C159.993 102.951 159.384 102.31 158.165 102.31C157.093 102.31 156.126 102.679 155.265 103.417V101.633C156.214 101.07 157.31 100.789 158.552 100.789C160.825 100.789 161.962 101.908 161.962 104.146V110ZM159.993 105.579L158.104 105.843C157.518 105.919 157.075 106.062 156.776 106.273C156.483 106.479 156.337 106.842 156.337 107.363C156.337 107.744 156.472 108.058 156.741 108.304C157.017 108.544 157.383 108.664 157.84 108.664C158.461 108.664 158.974 108.447 159.378 108.014C159.788 107.574 159.993 107.023 159.993 106.361V105.579ZM172.641 110H170.602V108.471H170.566C169.91 109.631 168.899 110.211 167.534 110.211C166.427 110.211 165.539 109.81 164.871 109.007C164.209 108.198 163.878 107.1 163.878 105.711C163.878 104.223 164.244 103.03 164.977 102.134C165.715 101.237 166.696 100.789 167.921 100.789C169.134 100.789 170.016 101.275 170.566 102.248H170.602V96.6758H172.641V110ZM170.628 105.887V104.709C170.628 104.07 170.42 103.528 170.004 103.083C169.588 102.638 169.058 102.415 168.413 102.415C167.651 102.415 167.051 102.699 166.611 103.268C166.178 103.836 165.961 104.624 165.961 105.632C165.961 106.546 166.169 107.27 166.585 107.803C167.007 108.33 167.572 108.594 168.281 108.594C168.979 108.594 169.544 108.339 169.978 107.829C170.411 107.313 170.628 106.666 170.628 105.887ZM182.212 110H180.234V108.594H180.199C179.578 109.672 178.667 110.211 177.466 110.211C176.581 110.211 175.887 109.971 175.383 109.49C174.885 109.01 174.636 108.374 174.636 107.583C174.636 105.884 175.614 104.894 177.571 104.612L180.243 104.234C180.243 102.951 179.634 102.31 178.415 102.31C177.343 102.31 176.376 102.679 175.515 103.417V101.633C176.464 101.07 177.56 100.789 178.802 100.789C181.075 100.789 182.212 101.908 182.212 104.146V110ZM180.243 105.579L178.354 105.843C177.768 105.919 177.325 106.062 177.026 106.273C176.733 106.479 176.587 106.842 176.587 107.363C176.587 107.744 176.722 108.058 176.991 108.304C177.267 108.544 177.633 108.664 178.09 108.664C178.711 108.664 179.224 108.447 179.628 108.014C180.038 107.574 180.243 107.023 180.243 106.361V105.579Z" fill="#181818"/>
</g>
<g filter="url(#filter1_d_899_431)">
<rect x="976" y="48" width="273" height="641" rx="10" fill="white"/>
<path d="M1003.43 64.3965L998.908 77H996.57L992.123 64.3965H994.408L997.52 73.959C997.619 74.2637 997.695 74.6182 997.748 75.0225H997.783C997.824 74.6885 997.909 74.3281 998.038 73.9414L1001.22 64.3965H1003.43ZM1005.9 66.1104C1005.57 66.1104 1005.28 66.002 1005.04 65.7852C1004.81 65.5684 1004.69 65.293 1004.69 64.959C1004.69 64.625 1004.81 64.3467 1005.04 64.124C1005.28 63.9014 1005.57 63.79 1005.9 63.79C1006.25 63.79 1006.54 63.9014 1006.78 64.124C1007.02 64.3467 1007.14 64.625 1007.14 64.959C1007.14 65.2754 1007.02 65.5479 1006.78 65.7764C1006.54 65.999 1006.25 66.1104 1005.9 66.1104ZM1006.92 77H1004.88V68H1006.92V77ZM1009.02 76.7188V74.8291C1009.79 75.4092 1010.63 75.6992 1011.55 75.6992C1012.78 75.6992 1013.39 75.3359 1013.39 74.6094C1013.39 74.4043 1013.34 74.2314 1013.23 74.0908C1013.13 73.9443 1012.99 73.8154 1012.8 73.7041C1012.63 73.5928 1012.42 73.4932 1012.17 73.4053C1011.93 73.3174 1011.66 73.2178 1011.36 73.1064C1010.99 72.96 1010.66 72.8047 1010.36 72.6406C1010.07 72.4766 1009.82 72.292 1009.62 72.0869C1009.43 71.876 1009.28 71.6387 1009.18 71.375C1009.08 71.1113 1009.03 70.8037 1009.03 70.4521C1009.03 70.0186 1009.14 69.6377 1009.34 69.3096C1009.55 68.9756 1009.82 68.6973 1010.17 68.4746C1010.51 68.2461 1010.91 68.0762 1011.34 67.9648C1011.78 67.8477 1012.24 67.7891 1012.71 67.7891C1013.54 67.7891 1014.28 67.915 1014.94 68.167V69.9512C1014.31 69.5176 1013.58 69.3008 1012.76 69.3008C1012.5 69.3008 1012.27 69.3271 1012.06 69.3799C1011.85 69.4326 1011.68 69.5059 1011.53 69.5996C1011.38 69.6934 1011.27 69.8076 1011.19 69.9424C1011.1 70.0713 1011.06 70.2148 1011.06 70.373C1011.06 70.5664 1011.1 70.7305 1011.19 70.8652C1011.27 71 1011.39 71.1201 1011.55 71.2256C1011.71 71.3252 1011.9 71.4189 1012.13 71.5068C1012.36 71.5889 1012.62 71.6797 1012.91 71.7793C1013.3 71.9375 1013.64 72.0986 1013.95 72.2627C1014.26 72.4268 1014.52 72.6143 1014.74 72.8252C1014.95 73.0303 1015.12 73.2705 1015.24 73.5459C1015.36 73.8154 1015.41 74.1377 1015.41 74.5127C1015.41 74.9697 1015.31 75.3682 1015.1 75.708C1014.89 76.0479 1014.61 76.3291 1014.25 76.5518C1013.9 76.7744 1013.5 76.9385 1013.03 77.0439C1012.58 77.1553 1012.09 77.2109 1011.58 77.2109C1010.6 77.2109 1009.75 77.0469 1009.02 76.7188ZM1024.26 77H1022.29V75.5938H1022.25C1021.63 76.6719 1020.72 77.2109 1019.52 77.2109C1018.63 77.2109 1017.94 76.9707 1017.44 76.4902C1016.94 76.0098 1016.69 75.374 1016.69 74.583C1016.69 72.8838 1017.67 71.8936 1019.62 71.6123L1022.3 71.2344C1022.3 69.9512 1021.69 69.3096 1020.47 69.3096C1019.4 69.3096 1018.43 69.6787 1017.57 70.417V68.6328C1018.52 68.0703 1019.61 67.7891 1020.85 67.7891C1023.13 67.7891 1024.26 68.9082 1024.26 71.1465V77ZM1022.3 72.5791L1020.41 72.8428C1019.82 72.9189 1019.38 73.0625 1019.08 73.2734C1018.79 73.4785 1018.64 73.8418 1018.64 74.3633C1018.64 74.7441 1018.77 75.0576 1019.04 75.3037C1019.32 75.5439 1019.69 75.6641 1020.14 75.6641C1020.76 75.6641 1021.28 75.4473 1021.68 75.0137C1022.09 74.5742 1022.3 74.0234 1022.3 73.3613V72.5791ZM1023.69 64.0361C1023.69 64.7158 1023.54 65.2725 1023.24 65.7061C1022.94 66.1338 1022.53 66.3477 1022.01 66.3477C1021.59 66.3477 1021.11 66.207 1020.56 65.9258C1020.11 65.6621 1019.75 65.5303 1019.5 65.5303C1019.01 65.5303 1018.76 65.8555 1018.76 66.5059H1017.75C1017.75 65.8086 1017.9 65.252 1018.2 64.8359C1018.5 64.4141 1018.92 64.2031 1019.46 64.2031C1019.86 64.2031 1020.32 64.3525 1020.84 64.6514C1021.26 64.9092 1021.62 65.0381 1021.94 65.0381C1022.41 65.0381 1022.65 64.7041 1022.65 64.0361H1023.69ZM1030.75 77.2109C1029.36 77.2109 1028.25 76.792 1027.42 75.9541C1026.59 75.1104 1026.18 73.9941 1026.18 72.6055C1026.18 71.0938 1026.61 69.9131 1027.47 69.0635C1028.34 68.2139 1029.51 67.7891 1030.97 67.7891C1032.38 67.7891 1033.47 68.2021 1034.26 69.0283C1035.04 69.8545 1035.44 71 1035.44 72.4648C1035.44 73.9004 1035.01 75.0518 1034.16 75.9189C1033.32 76.7803 1032.18 77.2109 1030.75 77.2109ZM1030.85 69.415C1030.05 69.415 1029.42 69.6934 1028.96 70.25C1028.5 70.8066 1028.26 71.5742 1028.26 72.5527C1028.26 73.4961 1028.5 74.2402 1028.97 74.7852C1029.44 75.3242 1030.06 75.5938 1030.85 75.5938C1031.65 75.5938 1032.27 75.3271 1032.69 74.7939C1033.13 74.2607 1033.34 73.502 1033.34 72.5176C1033.34 71.5273 1033.13 70.7627 1032.69 70.2236C1032.27 69.6846 1031.65 69.415 1030.85 69.415ZM1042.7 77V64.3965H1046.34C1050.99 64.3965 1053.31 66.4443 1053.31 70.54C1053.31 72.4854 1052.67 74.0498 1051.38 75.2334C1050.09 76.4111 1048.36 77 1046.19 77H1042.7ZM1044.79 66.1719V75.2334H1046.46C1047.93 75.2334 1049.07 74.8291 1049.88 74.0205C1050.71 73.2119 1051.12 72.0693 1051.12 70.5928C1051.12 67.6455 1049.59 66.1719 1046.54 66.1719H1044.79ZM1063.02 73.0537H1056.88C1056.9 73.8857 1057.16 74.5273 1057.65 74.9785C1058.14 75.4297 1058.81 75.6553 1059.67 75.6553C1060.63 75.6553 1061.51 75.3682 1062.31 74.7939V76.4375C1061.49 76.9531 1060.41 77.2109 1059.06 77.2109C1057.74 77.2109 1056.7 76.8037 1055.94 75.9893C1055.19 75.1689 1054.82 74.0176 1054.82 72.5352C1054.82 71.1348 1055.23 69.9951 1056.05 69.1162C1056.89 68.2314 1057.92 67.7891 1059.15 67.7891C1060.38 67.7891 1061.33 68.1846 1062 68.9756C1062.68 69.7666 1063.02 70.8652 1063.02 72.2715V73.0537ZM1061.05 71.6123C1061.04 70.8799 1060.87 70.3115 1060.53 69.9072C1060.19 69.4971 1059.72 69.292 1059.12 69.292C1058.54 69.292 1058.04 69.5059 1057.63 69.9336C1057.22 70.3613 1056.97 70.9209 1056.88 71.6123H1061.05ZM1069.7 76.9033C1069.31 77.1025 1068.78 77.2021 1068.13 77.2021C1066.38 77.2021 1065.51 76.3643 1065.51 74.6885V69.5996H1064.01V68H1065.51V65.917L1067.55 65.3369V68H1069.7V69.5996H1067.55V74.0996C1067.55 74.6328 1067.65 75.0137 1067.84 75.2422C1068.03 75.4707 1068.36 75.585 1068.81 75.585C1069.15 75.585 1069.45 75.4854 1069.7 75.2861V76.9033ZM1078.37 77H1076.39V75.5938H1076.36C1075.74 76.6719 1074.83 77.2109 1073.62 77.2109C1072.74 77.2109 1072.04 76.9707 1071.54 76.4902C1071.04 76.0098 1070.79 75.374 1070.79 74.583C1070.79 72.8838 1071.77 71.8936 1073.73 71.6123L1076.4 71.2344C1076.4 69.9512 1075.79 69.3096 1074.57 69.3096C1073.5 69.3096 1072.53 69.6787 1071.67 70.417V68.6328C1072.62 68.0703 1073.72 67.7891 1074.96 67.7891C1077.23 67.7891 1078.37 68.9082 1078.37 71.1465V77ZM1076.4 72.5791L1074.51 72.8428C1073.93 72.9189 1073.48 73.0625 1073.18 73.2734C1072.89 73.4785 1072.75 73.8418 1072.75 74.3633C1072.75 74.7441 1072.88 75.0576 1073.15 75.3037C1073.42 75.5439 1073.79 75.6641 1074.25 75.6641C1074.87 75.6641 1075.38 75.4473 1075.79 75.0137C1076.2 74.5742 1076.4 74.0234 1076.4 73.3613V72.5791ZM1082.91 77H1080.87V63.6758H1082.91V77ZM1093.58 77H1091.54V72.0781C1091.54 70.2969 1090.94 69.4062 1089.75 69.4062C1089.15 69.4062 1088.65 69.6641 1088.24 70.1797C1087.83 70.6953 1087.62 71.3545 1087.62 72.1572V77H1085.58V63.6758H1087.62V69.4941H1087.66C1088.34 68.3574 1089.31 67.7891 1090.58 67.7891C1092.58 67.7891 1093.58 69.0107 1093.58 71.4541V77ZM1102.96 77H1100.98V75.5938H1100.95C1100.33 76.6719 1099.42 77.2109 1098.22 77.2109C1097.33 77.2109 1096.64 76.9707 1096.13 76.4902C1095.63 76.0098 1095.39 75.374 1095.39 74.583C1095.39 72.8838 1096.36 71.8936 1098.32 71.6123L1100.99 71.2344C1100.99 69.9512 1100.38 69.3096 1099.17 69.3096C1098.09 69.3096 1097.13 69.6787 1096.26 70.417V68.6328C1097.21 68.0703 1098.31 67.7891 1099.55 67.7891C1101.83 67.7891 1102.96 68.9082 1102.96 71.1465V77ZM1100.99 72.5791L1099.1 72.8428C1098.52 72.9189 1098.08 73.0625 1097.78 73.2734C1097.48 73.4785 1097.34 73.8418 1097.34 74.3633C1097.34 74.7441 1097.47 75.0576 1097.74 75.3037C1098.02 75.5439 1098.38 75.6641 1098.84 75.6641C1099.46 75.6641 1099.97 75.4473 1100.38 75.0137C1100.79 74.5742 1100.99 74.0234 1100.99 73.3613V72.5791ZM1113.64 77H1111.6V75.4707H1111.57C1110.91 76.6309 1109.9 77.2109 1108.53 77.2109C1107.43 77.2109 1106.54 76.8096 1105.87 76.0068C1105.21 75.1982 1104.88 74.0996 1104.88 72.7109C1104.88 71.2227 1105.24 70.0303 1105.98 69.1338C1106.71 68.2373 1107.7 67.7891 1108.92 67.7891C1110.13 67.7891 1111.02 68.2754 1111.57 69.248H1111.6V63.6758H1113.64V77ZM1111.63 72.8867V71.709C1111.63 71.0703 1111.42 70.5283 1111 70.083C1110.59 69.6377 1110.06 69.415 1109.41 69.415C1108.65 69.415 1108.05 69.6992 1107.61 70.2676C1107.18 70.8359 1106.96 71.624 1106.96 72.6318C1106.96 73.5459 1107.17 74.2695 1107.58 74.8027C1108.01 75.3301 1108.57 75.5938 1109.28 75.5938C1109.98 75.5938 1110.54 75.3389 1110.98 74.8291C1111.41 74.3135 1111.63 73.666 1111.63 72.8867ZM1123.21 77H1121.23V75.5938H1121.2C1120.58 76.6719 1119.67 77.2109 1118.47 77.2109C1117.58 77.2109 1116.89 76.9707 1116.38 76.4902C1115.88 76.0098 1115.64 75.374 1115.64 74.583C1115.64 72.8838 1116.61 71.8936 1118.57 71.6123L1121.24 71.2344C1121.24 69.9512 1120.63 69.3096 1119.42 69.3096C1118.34 69.3096 1117.38 69.6787 1116.51 70.417V68.6328C1117.46 68.0703 1118.56 67.7891 1119.8 67.7891C1122.08 67.7891 1123.21 68.9082 1123.21 71.1465V77ZM1121.24 72.5791L1119.35 72.8428C1118.77 72.9189 1118.33 73.0625 1118.03 73.2734C1117.73 73.4785 1117.59 73.8418 1117.59 74.3633C1117.59 74.7441 1117.72 75.0576 1117.99 75.3037C1118.27 75.5439 1118.63 75.6641 1119.09 75.6641C1119.71 75.6641 1120.22 75.4473 1120.63 75.0137C1121.04 74.5742 1121.24 74.0234 1121.24 73.3613V72.5791Z" fill="#181818"/>
</g>
<path d="M85.957 44.4629V41.3379C86.5234 41.8132 87.1387 42.1712 87.8027 42.4121C88.4668 42.6465 89.1374 42.7637 89.8145 42.7637C90.2116 42.7637 90.5566 42.7279 90.8496 42.6562C91.1491 42.5846 91.3965 42.487 91.5918 42.3633C91.7936 42.2331 91.9434 42.0833 92.041 41.9141C92.1387 41.7383 92.1875 41.5495 92.1875 41.3477C92.1875 41.0742 92.1094 40.8301 91.9531 40.6152C91.7969 40.4004 91.582 40.2018 91.3086 40.0195C91.0417 39.8372 90.7227 39.6615 90.3516 39.4922C89.9805 39.3229 89.5801 39.1504 89.1504 38.9746C88.0566 38.5189 87.2396 37.9622 86.6992 37.3047C86.1654 36.6471 85.8984 35.8529 85.8984 34.9219C85.8984 34.1927 86.0449 33.5677 86.3379 33.0469C86.6309 32.5195 87.028 32.0866 87.5293 31.748C88.0371 31.4095 88.623 31.1621 89.2871 31.0059C89.9512 30.8431 90.6543 30.7617 91.3965 30.7617C92.1257 30.7617 92.7702 30.8073 93.3301 30.8984C93.8965 30.9831 94.4173 31.1165 94.8926 31.2988V34.2188C94.6582 34.056 94.401 33.9128 94.1211 33.7891C93.8477 33.6654 93.5645 33.5645 93.2715 33.4863C92.9785 33.4017 92.6855 33.3398 92.3926 33.3008C92.1061 33.2617 91.8327 33.2422 91.5723 33.2422C91.2142 33.2422 90.8887 33.278 90.5957 33.3496C90.3027 33.4147 90.0553 33.5091 89.8535 33.6328C89.6517 33.7565 89.4954 33.9062 89.3848 34.082C89.2741 34.2513 89.2188 34.4434 89.2188 34.6582C89.2188 34.8926 89.2806 35.1042 89.4043 35.293C89.528 35.4753 89.7038 35.651 89.9316 35.8203C90.1595 35.9831 90.4362 36.1458 90.7617 36.3086C91.0872 36.4648 91.4551 36.6276 91.8652 36.7969C92.4251 37.0312 92.9264 37.2819 93.3691 37.5488C93.8184 37.8092 94.2025 38.1055 94.5215 38.4375C94.8405 38.7695 95.0846 39.1504 95.2539 39.5801C95.4232 40.0033 95.5078 40.498 95.5078 41.0645C95.5078 41.8457 95.3581 42.5033 95.0586 43.0371C94.7656 43.5645 94.3652 43.9941 93.8574 44.3262C93.3496 44.6517 92.7572 44.8861 92.0801 45.0293C91.4095 45.1725 90.6999 45.2441 89.9512 45.2441C89.1829 45.2441 88.4505 45.179 87.7539 45.0488C87.0638 44.9186 86.4648 44.7233 85.957 44.4629ZM100.635 43.8379H100.596V49.5996H97.5098V35H100.596V36.5039H100.635C101.396 35.3385 102.467 34.7559 103.848 34.7559C105.143 34.7559 106.143 35.2018 106.846 36.0938C107.555 36.9792 107.91 38.1868 107.91 39.7168C107.91 41.3835 107.497 42.7214 106.67 43.7305C105.85 44.7396 104.756 45.2441 103.389 45.2441C102.184 45.2441 101.266 44.7754 100.635 43.8379ZM100.547 39.7363V40.5371C100.547 41.2272 100.729 41.7904 101.094 42.2266C101.458 42.6628 101.937 42.8809 102.529 42.8809C103.232 42.8809 103.776 42.6107 104.16 42.0703C104.551 41.5234 104.746 40.752 104.746 39.7559C104.746 37.998 104.062 37.1191 102.695 37.1191C102.064 37.1191 101.546 37.36 101.143 37.8418C100.745 38.3171 100.547 38.9486 100.547 39.7363ZM114.678 45.2441C113.011 45.2441 111.699 44.7786 110.742 43.8477C109.792 42.9102 109.316 41.6406 109.316 40.0391C109.316 38.3854 109.811 37.0931 110.801 36.1621C111.79 35.2246 113.128 34.7559 114.814 34.7559C116.475 34.7559 117.777 35.2246 118.721 36.1621C119.665 37.0931 120.137 38.3268 120.137 39.8633C120.137 41.5234 119.648 42.8353 118.672 43.7988C117.702 44.7624 116.37 45.2441 114.678 45.2441ZM114.756 37.1191C114.027 37.1191 113.46 37.3698 113.057 37.8711C112.653 38.3724 112.451 39.082 112.451 40C112.451 41.9206 113.226 42.8809 114.775 42.8809C116.253 42.8809 116.992 41.8945 116.992 39.9219C116.992 38.0534 116.247 37.1191 114.756 37.1191ZM128.184 44.8828C127.728 45.1237 127.041 45.2441 126.123 45.2441C123.949 45.2441 122.861 44.1146 122.861 41.8555V37.2754H121.24V35H122.861V32.8418L125.938 31.9629V35H128.184V37.2754H125.938V41.3184C125.938 42.36 126.351 42.8809 127.178 42.8809C127.503 42.8809 127.839 42.7865 128.184 42.5977V44.8828ZM131.494 33.418C130.973 33.418 130.547 33.265 130.215 32.959C129.883 32.6465 129.717 32.2656 129.717 31.8164C129.717 31.3542 129.883 30.9766 130.215 30.6836C130.547 30.3906 130.973 30.2441 131.494 30.2441C132.021 30.2441 132.448 30.3906 132.773 30.6836C133.105 30.9766 133.271 31.3542 133.271 31.8164C133.271 32.2852 133.105 32.6693 132.773 32.9688C132.448 33.2682 132.021 33.418 131.494 33.418ZM133.018 45H129.932V35H133.018V45ZM142.139 32.5586C141.742 32.4023 141.361 32.3242 140.996 32.3242C140.007 32.3242 139.512 32.8613 139.512 33.9355V35H141.797V37.2754H139.512V45H136.436V37.2754H134.756V35H136.436V33.7598C136.436 32.6204 136.807 31.7025 137.549 31.0059C138.291 30.3092 139.3 29.9609 140.576 29.9609C141.201 29.9609 141.722 30.026 142.139 30.1562V32.5586ZM153.223 35L149.16 45.8008C148.184 48.3984 146.712 49.6973 144.746 49.6973C143.997 49.6973 143.382 49.6126 142.9 49.4434V46.9824C143.311 47.2233 143.757 47.3438 144.238 47.3438C145.033 47.3438 145.586 46.9694 145.898 46.2207L146.426 44.9805L142.363 35H145.781L147.646 41.084C147.764 41.4616 147.855 41.9076 147.92 42.4219H147.959C148.018 42.0443 148.125 41.6048 148.281 41.1035L150.166 35H153.223Z" fill="#1DB954"/>
<g clip-path="url(#clip1_899_431)">
<path d="M53.5 19.6562C42.1837 19.6562 33 28.7699 33 40C33 51.2301 42.1837 60.3438 53.5 60.3438C64.8163 60.3438 74 51.2301 74 40C74 28.7699 64.8163 19.6562 53.5 19.6562Z" fill="#1ED760"/>
<path d="M66.6103 37.9573C66.1804 37.9573 65.9159 37.8507 65.5439 37.6374C59.6584 34.1511 49.1357 33.3144 42.3244 35.2011C42.0268 35.2831 41.6548 35.4144 41.258 35.4144C40.1669 35.4144 39.332 34.5694 39.332 33.4784C39.332 32.3628 40.0264 31.7312 40.7703 31.5179C43.68 30.673 46.9369 30.271 50.483 30.271C56.5173 30.271 62.8409 31.5179 67.4617 34.1921C68.1064 34.5612 68.528 35.0698 68.528 36.046C68.528 37.1616 67.6187 37.9573 66.6103 37.9573ZM64.0478 44.2081C63.6179 44.2081 63.3286 44.0194 63.031 43.8636C57.8647 40.8284 50.1607 39.6062 43.308 41.4519C42.9113 41.5585 42.6963 41.6651 42.3244 41.6651C41.4399 41.6651 40.7207 40.9515 40.7207 40.0737C40.7207 39.196 41.1506 38.6136 42.002 38.3757C44.3 37.7358 46.6476 37.2601 50.0863 37.2601C55.451 37.2601 60.6338 38.5808 64.7173 40.9925C65.3869 41.3862 65.6514 41.8948 65.6514 42.6085C65.6431 43.4944 64.9488 44.2081 64.0478 44.2081ZM61.8242 49.5894C61.477 49.5894 61.2621 49.4827 60.9397 49.294C55.7816 46.2097 49.7804 46.0784 43.8536 47.2843C43.5312 47.3663 43.1097 47.4976 42.8699 47.4976C42.0681 47.4976 41.5639 46.8659 41.5639 46.2015C41.5639 45.3565 42.0681 44.9546 42.6881 44.8233C49.458 43.3386 56.3768 43.4698 62.2788 46.9726C62.783 47.2925 63.0806 47.5796 63.0806 48.3261C63.0806 49.0726 62.4937 49.5894 61.8242 49.5894Z" fill="black"/>
</g>
</g>
<defs>
<filter id="filter0_d_899_431" x="31" y="79" width="1218" height="582" filterUnits="userSpaceOnUse" color-interpolation-filters="sRGB">
<feFlood flood-opacity="0" result="BackgroundImageFix"/>
<feColorMatrix in="SourceAlpha" type="matrix" values="0 0 0 0 0 0 0 0 0 0 0 0 0 0 0 0 0 0 127 0" result="hardAlpha"/>
<feOffset dy="2"/>
<feGaussianBlur stdDeviation="2"/>
<feComposite in2="hardAlpha" operator="out"/>
<feColorMatrix type="matrix" values="0 0 0 0 0 0 0 0 0 0 0 0 0 0 0 0 0 0 0.15 0"/>
<feBlend mode="normal" in2="BackgroundImageFix" result="effect1_dropShadow_899_431"/>
<feBlend mode="normal" in="SourceGraphic" in2="effect1_dropShadow_899_431" result="shape"/>
</filter>
<filter id="filter1_d_899_431" x="972" y="46" width="281" height="649" filterUnits="userSpaceOnUse" color-interpolation-filters="sRGB">
<feFlood flood-opacity="0" result="BackgroundImageFix"/>
<feColorMatrix in="SourceAlpha" type="matrix" values="0 0 0 0 0 0 0 0 0 0 0 0 0 0 0 0 0 0 127 0" result="hardAlpha"/>
<feOffset dy="2"/>
<feGaussianBlur stdDeviation="2"/>
<feComposite in2="hardAlpha" operator="out"/>
<feColorMatrix type="matrix" values="0 0 0 0 0 0 0 0 0 0 0 0 0 0 0 0 0 0 0.15 0"/>
<feBlend mode="normal" in2="BackgroundImageFix" result="effect1_dropShadow_899_431"/>
<feBlend mode="normal" in="SourceGraphic" in2="effect1_dropShadow_899_431" result="shape"/>
</filter>
<linearGradient id="paint0_linear_899_431" x1="640" y1="0" x2="640" y2="720" gradientUnits="userSpaceOnUse">
<stop stop-color="#EEEEEE"/>
<stop offset="1" stop-color="#D0D1D1" stop-opacity="0.95"/>
</linearGradient>
<clipPath id="clip0_899_431">
<rect width="1280" height="720" fill="white"/>
</clipPath>
<clipPath id="clip1_899_431">
<rect width="41" height="42" fill="white" transform="translate(33 19)"/>
</clipPath>
</defs>
</svg>
